HIERARCHY
ROOT Hips
{
	OFFSET 0.000000 0.000000 0.000000
	CHANNELS 6 Xposition Yposition Zposition Xrotation Yrotation Zrotation
	JOINT LeftUpLeg_virtual
	{
		OFFSET 0.000000 0.000000 0.000000
		CHANNELS 3 Xrotation Yrotation Zrotation
		JOINT LeftUpLeg
		{
			OFFSET 15.427100 -6.655098 0.678600
			CHANNELS 3 Xrotation Yrotation Zrotation
			JOINT LeftLeg
			{
				OFFSET 4.081073 -39.591068 13.024000
				CHANNELS 3 Xrotation Yrotation Zrotation
				JOINT LeftFoot
				{
					OFFSET -4.081074 -37.707932 -15.979700
					CHANNELS 3 Xrotation Yrotation Zrotation
					JOINT LeftToeBase
					{
						OFFSET 5.346399 -15.068900 20.645000
						CHANNELS 3 Xrotation Yrotation Zrotation
						JOINT LeftToe_End
						{
							OFFSET 2.754700 0.931300 11.300900
							CHANNELS 3 Xrotation Yrotation Zrotation
							End Site
							{
								OFFSET 0 0 0
							}
						}
					}
				}
			}
		}
	}
	JOINT RightUpLeg_virtual
	{
		OFFSET 0.000000 0.000000 0.000000
		CHANNELS 3 Xrotation Yrotation Zrotation
		JOINT RightUpLeg
		{
			OFFSET -15.569500 -6.655098 0.678600
			CHANNELS 3 Xrotation Yrotation Zrotation
			JOINT RightLeg
			{
				OFFSET -4.081825 -39.591045 13.023800
				CHANNELS 3 Xrotation Yrotation Zrotation
				JOINT RightFoot
				{
					OFFSET 4.081824 -37.707954 -15.979600
					CHANNELS 3 Xrotation Yrotation Zrotation
					JOINT RightToeBase
					{
						OFFSET -5.346400 -15.068900 20.645000
						CHANNELS 3 Xrotation Yrotation Zrotation
						JOINT RightToe_End
						{
							OFFSET -2.754700 0.931300 11.300900
							CHANNELS 3 Xrotation Yrotation Zrotation
							End Site
							{
								OFFSET 0 0 0
							}
						}
					}
				}
			}
		}
	}
	JOINT Spine_virtual
	{
		OFFSET 0.000000 0.000000 0.000000
		CHANNELS 3 Xrotation Yrotation Zrotation
		JOINT Spine
		{
			OFFSET -0.279200 12.230698 -2.892100
			CHANNELS 3 Xrotation Yrotation Zrotation
			JOINT Spine1
			{
				OFFSET -0.232667 10.192268 -1.242267
				CHANNELS 3 Xrotation Yrotation Zrotation
				JOINT Spine1_split
				{
					OFFSET -0.232667 10.192268 -1.242267
					CHANNELS 3 Xrotation Yrotation Zrotation
					JOINT Spine2
					{
						OFFSET -0.232667 10.192268 -1.242267
						CHANNELS 3 Xrotation Yrotation Zrotation
						JOINT Neck_virtual
						{
							OFFSET 0.000000 0.000000 0.000000
							CHANNELS 3 Xrotation Yrotation Zrotation
							JOINT Neck
							{
								OFFSET -0.418800 17.814194 8.416900
								CHANNELS 3 Xrotation Yrotation Zrotation
								JOINT Head
								{
									OFFSET 0.000000 7.031097 3.806800
									CHANNELS 3 Xrotation Yrotation Zrotation
									JOINT HeadTop_End
									{
										OFFSET 0.000000 24.646606 12.978600
										CHANNELS 3 Xrotation Yrotation Zrotation
										End Site
										{
											OFFSET 0 0 0
										}
									}
								}
							}
						}
						JOINT LeftShoulder_virtual
						{
							OFFSET 0.000000 0.000000 0.000000
							CHANNELS 3 Xrotation Yrotation Zrotation
							JOINT LeftShoulder
							{
								OFFSET 8.476499 7.247704 -3.868750
								CHANNELS 3 Xrotation Yrotation Zrotation
								JOINT LeftShoulder_split
								{
									OFFSET 8.476499 7.247704 -3.868750
									CHANNELS 3 Xrotation Yrotation Zrotation
									JOINT LeftArm
									{
										OFFSET 9.308998 -2.777710 0.208600
										CHANNELS 3 Xrotation Yrotation Zrotation
										JOINT LeftForeArm
										{
											OFFSET 29.972298 0.000000 0.000000
											CHANNELS 3 Xrotation Yrotation Zrotation
											JOINT LeftHand
											{
												OFFSET 26.026505 0.000000 0.000000
												CHANNELS 3 Xrotation Yrotation Zrotation
												End Site
												{
													OFFSET 0 0 0
												}
											}
										}
									}
								}
							}
						}
						JOINT RightShoulder_virtual
						{
							OFFSET 0.000000 0.000000 0.000000
							CHANNELS 3 Xrotation Yrotation Zrotation
							JOINT RightShoulder
							{
								OFFSET -7.570500 7.247704 -3.868750
								CHANNELS 3 Xrotation Yrotation Zrotation
								JOINT RightShoulder_split
								{
									OFFSET -7.570500 7.247704 -3.868750
									CHANNELS 3 Xrotation Yrotation Zrotation
									JOINT RightArm
									{
										OFFSET -9.308998 -2.777710 0.208500
										CHANNELS 3 Xrotation Yrotation Zrotation
										JOINT RightForeArm
										{
											OFFSET -29.972300 0.000000 0.000000
											CHANNELS 3 Xrotation Yrotation Zrotation
											JOINT RightHand
											{
												OFFSET -26.026505 0.000000 0.000000
												CHANNELS 3 Xrotation Yrotation Zrotation
												End Site
												{
													OFFSET 0 0 0
												}
											}
										}
									}
								}
							}
						}
					}
				}
			}
		}
	}
}
MOTION
Frames: 10
Frame Time: 0.03333333
-5.217434 91.125809 -9.241308 0.000000 0.000000 0.000000 -8.716817 -0.614738 3.273516 -7.932172 8.090976 -3.316573 25.547459 -0.551202 -0.362304 -9.584784 4.181193 2.695139 0.000002 -0.000006 -0.000002 0.000000 0.000000 0.000000 -8.716817 -0.614738 3.273516 -11.024724 -14.302099 -15.620754 29.386506 1.293637 0.717469 -9.547747 -15.412783 4.163133 -0.000095 -0.000011 0.000194 0.000000 0.000000 0.000000 -8.716817 -0.614738 3.273516 7.536458 1.459584 -4.342864 15.001682 3.208854 -3.005015 0.000000 0.000000 0.000000 0.000000 0.000000 0.000000 15.025228 3.101744 -2.981806 35.367184 0.454794 -4.927126 -0.614292 1.721699 -4.974580 0.000000 0.000000 0.000000 15.025228 3.101744 -2.981806 -2.107433 -21.664055 -27.014334 0.000000 0.000000 0.000000 -4.070715 -46.646466 -32.633554 4.425100 -22.863070 1.574463 0.000000 0.000000 0.000000 15.025228 3.101744 -2.981806 -2.505638 24.220858 26.971288 0.000000 0.000000 0.000000 -4.213949 20.673424 36.929279 27.080481 37.419215 -10.824386 0.000000 0.000000 0.000000 
-4.460111 92.064339 -9.027815 0.000000 0.000000 0.000000 -9.890347 -1.271566 3.762329 -4.644288 8.998819 -4.540930 22.593356 -0.517783 -0.344050 -8.625918 3.888677 3.233400 -0.000008 -0.000002 -0.000001 0.000000 0.000000 0.000000 -9.890347 -1.271566 3.762329 -8.963069 -14.297916 -16.550452 27.172265 1.229851 0.686241 -8.229318 -14.766597 4.831827 -0.000094 -0.000002 0.000215 0.000000 0.000000 0.000000 -9.890347 -1.271566 3.762329 6.799828 1.619262 -4.688987 13.499550 3.300435 -3.157294 0.000000 0.000000 0.000000 0.000000 0.000000 0.000000 13.525417 3.199130 -3.135812 33.353412 1.110182 -4.334501 -1.596101 2.537175 -5.856433 0.000000 0.000000 0.000000 13.525417 3.199130 -3.135812 -1.205557 -20.666498 -24.364069 0.000000 0.000000 0.000000 1.602666 -41.933595 -31.598234 4.490920 -26.563560 0.875684 0.000000 0.000000 0.000000 13.525417 3.199130 -3.135812 -1.348473 22.309548 23.910460 0.000000 0.000000 0.000000 2.405173 20.579674 39.044817 30.735042 42.386112 -15.654503 0.000000 0.000000 0.000000 
-3.758886 92.406387 -8.907640 0.000000 0.000000 0.000000 -10.275874 -1.646004 4.142682 -3.183683 9.741860 -5.527354 21.254381 -0.504131 -0.337270 -8.255439 3.543259 3.770764 0.000004 0.000001 0.000001 0.000000 0.000000 0.000000 -10.275874 -1.646004 4.142682 -8.408866 -14.154424 -17.495671 26.337302 1.208596 0.675238 -7.534213 -14.369774 5.439918 -0.000088 -0.000008 0.000201 0.000000 0.000000 0.000000 -10.275874 -1.646004 4.142682 6.100508 1.641965 -4.967459 12.086297 3.177757 -3.317954 0.000000 0.000000 0.000000 0.000000 0.000000 0.000000 12.112675 3.083688 -3.298397 30.904851 1.645484 -3.990194 -2.591302 2.961592 -5.738687 0.000000 0.000000 0.000000 12.112675 3.083688 -3.298397 0.051155 -19.230217 -20.982123 0.000000 0.000000 0.000000 4.852676 -36.960500 -32.152344 6.739175 -28.723869 1.369270 0.000000 0.000000 0.000000 12.112675 3.083688 -3.298397 -0.076874 20.530177 20.303506 0.000000 0.000000 0.000000 6.411382 20.396577 41.725165 31.669330 45.382417 -17.619793 0.000000 0.000000 0.000000 
-3.203253 92.399124 -8.742632 0.000000 0.000000 0.000000 -10.110420 -1.932548 4.450953 -2.850096 10.377179 -6.260930 20.951139 -0.504667 -0.337417 -8.357602 3.271012 4.211349 0.000002 -0.000002 0.000002 0.000000 0.000000 0.000000 -10.110420 -1.932548 4.450953 -8.754087 -13.839553 -18.329617 26.374530 1.210608 0.676630 -7.333969 -14.136560 5.945931 -0.000106 -0.000008 0.000225 0.000000 0.000000 0.000000 -10.110420 -1.932548 4.450953 5.415022 1.613691 -5.236514 10.707920 3.001653 -3.485507 0.000000 0.000000 0.000000 0.000000 0.000000 0.000000 10.734435 2.915114 -3.467962 27.895261 2.104592 -3.063929 -3.214826 3.297946 -5.636960 0.000000 0.000000 0.000000 10.734435 2.915114 -3.467962 1.434093 -17.670099 -17.056536 0.000000 0.000000 0.000000 5.145488 -32.111690 -34.387796 10.769999 -28.265327 2.445300 0.000000 0.000000 0.000000 10.734435 2.915114 -3.467962 1.094250 18.911720 16.755144 0.000000 0.000000 0.000000 7.613247 19.725267 44.846073 30.069672 45.972081 -16.293046 0.000000 0.000000 0.000000 
-2.845123 92.426437 -8.577566 0.000000 0.000000 0.000000 -9.799657 -1.988505 4.540861 -2.872025 10.638905 -6.621813 20.781382 -0.502272 -0.336194 -8.442947 3.117909 4.485057 -0.000005 -0.000002 0.000002 0.000000 0.000000 0.000000 -9.799657 -1.988505 4.540861 -9.074512 -13.904184 -18.770714 26.242024 1.215360 0.677993 -7.178478 -13.880468 6.265534 -0.000097 -0.000006 0.000217 0.000000 0.000000 0.000000 -9.799657 -1.988505 4.540861 4.798782 1.579714 -5.416918 9.470098 2.843625 -3.500504 0.000000 0.000000 0.000000 0.000000 0.000000 0.000000 9.496680 2.764193 -3.484832 25.306211 2.182154 -2.251187 -4.197681 3.148814 -4.948923 0.000000 0.000000 0.000000 9.496680 2.764193 -3.484832 2.593121 -16.440861 -13.309864 0.000000 0.000000 0.000000 2.934876 -26.504184 -37.776130 15.934983 -26.143973 2.974180 0.000000 0.000000 0.000000 9.496680 2.764193 -3.484832 2.014500 17.544540 13.805266 0.000000 0.000000 0.000000 6.688010 17.694887 48.237753 29.938724 44.566137 -15.018258 0.000000 0.000000 0.000000 
-2.643386 92.530579 -8.392210 0.000000 0.000000 0.000000 -9.662097 -1.997106 4.496974 -2.702634 10.773502 -6.732961 20.520578 -0.496478 -0.333439 -8.480790 2.984368 4.614883 -0.000006 -0.000000 0.000001 0.000000 0.000000 0.000000 -9.662097 -1.997106 4.496974 -9.008958 -14.141881 -18.909925 25.880546 1.213909 0.675691 -7.028878 -13.636380 6.447387 -0.000093 0.000004 0.000237 0.000000 0.000000 0.000000 -9.662097 -1.997106 4.496974 4.289418 1.560100 -5.453792 8.446682 2.706683 -3.378602 0.000000 0.000000 0.000000 0.000000 0.000000 0.000000 8.472754 2.634555 -3.364657 23.256135 2.152001 -1.806246 -5.081723 2.888460 -4.271959 0.000000 0.000000 0.000000 8.472754 2.634555 -3.364657 3.355887 -15.615675 -10.461814 0.000000 0.000000 0.000000 -1.058383 -19.744801 -41.581150 21.342932 -22.951159 2.567400 0.000000 0.000000 0.000000 8.472754 2.634555 -3.364657 2.645711 16.515075 11.796824 0.000000 0.000000 0.000000 4.550604 14.261688 51.339878 32.682817 41.841930 -15.349769 0.000000 0.000000 0.000000 
-2.629748 92.692436 -8.107229 0.000000 0.000000 0.000000 -9.570253 -2.264841 4.429544 -2.289109 11.132479 -6.664476 20.128240 -0.492426 -0.331527 -8.562215 2.821730 4.565000 -0.000014 -0.000002 0.000001 0.000000 0.000000 0.000000 -9.570253 -2.264841 4.429544 -8.718498 -14.080994 -18.775195 25.457845 1.199234 0.667830 -6.964790 -13.523870 6.495151 -0.000088 -0.000003 0.000198 0.000000 0.000000 0.000000 -9.570253 -2.264841 4.429544 3.818233 1.604327 -5.406777 7.497060 2.702012 -3.211287 0.000000 0.000000 0.000000 0.000000 0.000000 0.000000 7.523181 2.637802 -3.199101 21.220182 2.001555 -1.462109 -5.215448 2.546553 -3.854552 0.000000 0.000000 0.000000 7.523181 2.637802 -3.199101 3.815184 -14.934808 -8.640229 0.000000 0.000000 0.000000 -6.097112 -12.176753 -45.226115 25.763866 -18.939099 1.259829 0.000000 0.000000 0.000000 7.523181 2.637802 -3.199101 3.077877 15.773292 10.617767 0.000000 0.000000 0.000000 1.805628 10.161657 53.931761 36.233395 38.396752 -15.976888 0.000000 0.000000 0.000000 
-2.713218 92.895859 -7.715860 0.000000 0.000000 0.000000 -9.506646 -2.657498 4.430237 -1.620189 11.758491 -6.577308 19.568383 -0.488425 -0.330060 -8.653840 2.473855 4.416444 -0.000002 -0.000000 -0.000002 0.000000 0.000000 0.000000 -9.506646 -2.657498 4.430237 -8.284705 -13.856395 -18.599490 25.012906 1.177327 0.657133 -6.987228 -13.487406 6.501424 -0.000108 0.000004 0.000249 0.000000 0.000000 0.000000 -9.506646 -2.657498 4.430237 3.432218 1.642328 -5.325687 6.721052 2.695539 -3.088565 0.000000 0.000000 0.000000 0.000000 0.000000 0.000000 6.746767 2.638541 -3.077893 19.012212 1.812322 -1.207069 -4.722065 2.198782 -3.608819 0.000000 0.000000 0.000000 6.746767 2.638541 -3.077893 4.159407 -14.212194 -7.458293 0.000000 0.000000 0.000000 -11.263981 -4.492031 -48.432260 28.132380 -14.686616 -0.543513 0.000000 0.000000 0.000000 6.746767 2.638541 -3.077893 3.432490 15.171025 9.854208 0.000000 0.000000 0.000000 -1.182995 6.262932 56.279960 38.298025 34.822446 -15.340970 0.000000 0.000000 0.000000 
-2.814157 93.054352 -7.215631 0.000000 0.000000 0.000000 -9.377384 -2.920128 4.476029 -1.032849 12.133012 -6.555883 19.110521 -0.484570 -0.329042 -8.846540 2.256992 4.254416 0.000003 -0.000004 -0.000001 0.000000 0.000000 0.000000 -9.377384 -2.920128 4.476029 -7.904569 -13.792103 -18.526352 24.684918 1.162471 0.649917 -7.168015 -13.411677 6.537055 -0.000106 0.000002 0.000229 0.000000 0.000000 0.000000 -9.377384 -2.920128 4.476029 3.116267 1.621772 -5.248370 6.090303 2.598104 -2.993249 0.000000 0.000000 0.000000 0.000000 0.000000 0.000000 6.114828 2.546950 -2.983727 16.880934 1.649110 -1.166464 -4.094946 1.826295 -3.194976 0.000000 0.000000 0.000000 6.114828 2.546950 -2.983727 4.492589 -13.551702 -6.484581 0.000000 0.000000 0.000000 -15.445045 2.410666 -51.121429 28.121035 -10.838621 -2.238070 0.000000 0.000000 0.000000 6.114828 2.546950 -2.983727 3.748567 14.654939 9.194410 0.000000 0.000000 0.000000 -3.992793 3.090963 58.567738 38.173801 31.501693 -13.169055 0.000000 0.000000 0.000000 
-2.853677 93.181801 -6.639940 0.000000 0.000000 0.000000 -9.238621 -3.115651 4.467891 -0.476911 12.409719 -6.533146 18.761912 -0.480623 -0.327741 -9.146970 2.080622 4.132970 -0.000002 -0.000002 0.000001 0.000000 0.000000 0.000000 -9.238621 -3.115651 4.467891 -7.496599 -13.876699 -18.487907 24.353441 1.150845 0.643673 -7.383686 -13.252706 6.638266 -0.000084 -0.000006 0.000184 0.000000 0.000000 0.000000 -9.238621 -3.115651 4.467891 2.854273 1.568084 -5.176547 5.567971 2.448602 -2.873784 0.000000 0.000000 0.000000 0.000000 0.000000 0.000000 5.591093 2.401976 -2.865065 14.683407 1.504735 -1.197132 -3.553096 1.457538 -2.638614 0.000000 0.000000 0.000000 5.591093 2.401976 -2.865065 4.797204 -13.170873 -5.524609 0.000000 0.000000 0.000000 -17.650790 7.609659 -53.374117 26.431466 -7.778534 -3.513768 0.000000 0.000000 0.000000 5.591093 2.401976 -2.865065 3.991686 14.334986 8.542211 0.000000 0.000000 0.000000 -6.103256 0.770188 60.631398 36.348884 28.621775 -10.167021 0.000000 0.000000 0.000000 
